<svg version="1.1" xmlns="http://www.w3.org/2000/svg" viewBox="0 0 743.0381944444446 442.2460937500002" width="1486.0763888888891" height="884.4921875000005">
  <!-- svg-source:excalidraw -->
  
  <defs>
    <style>
      @font-face {
        font-family: "Virgil";
        src: url("https://excalidraw.com/Virgil.woff2");
      }
      @font-face {
        font-family: "Cascadia";
        src: url("https://excalidraw.com/Cascadia.woff2");
      }
    </style>
  </defs>
  <rect x="0" y="0" width="743.0381944444446" height="442.2460937500002" fill="#ffffff"></rect><g stroke-linecap="round" transform="translate(10.477430555555486 319.55512152777806) rotate(0 360.20833333333337 56.345486111111086)"><path d="M0 0 C0 0, 0 0, 0 0 M0 0 C0 0, 0 0, 0 0 M-0.32 5.66 C1.94 4.37, 3.06 1.41, 5.56 0.91 M-0.01 6.45 C1.1 5.52, 1.64 3.71, 5.05 0.06 M1.09 11.15 C2.93 7.95, 5.67 7.18, 10.8 0.25 M0.16 11.66 C3.73 8.19, 6.65 4.46, 11.32 -0.62 M-1.37 19.32 C2.27 11.97, 7.14 7.83, 16.67 0.78 M0.34 17.57 C1.91 15.34, 5.32 10.84, 15.29 1.25 M-0.72 25.34 C4.84 17.33, 8.8 13.43, 22.16 0.27 M0.17 24.42 C5.56 18.19, 10.15 12.93, 21 -0.96 M-0.07 30.84 C5.84 20.84, 15.81 11.02, 25.26 0.36 M0.09 30.57 C9.6 17.53, 20.48 6.72, 26.33 0.04 M1.07 37.34 C11.38 22.69, 23.55 11.29, 33.26 1.76 M0.63 36.95 C6.95 28.71, 14.61 20.81, 32.83 -0.22 M1.37 41 C11.31 32.56, 16.49 20.6, 35.74 0.97 M-0.2 43.39 C9.18 31.23, 18.33 21.33, 36.99 1.14 M-2.05 49.54 C17.06 30.87, 33.71 10.69, 42.21 1.01 M-0.57 48 C12.02 35.62, 24.58 21.89, 42.84 0.39 M-0.61 53.67 C17.01 34.25, 36.85 11.64, 47.17 0.07 M1.16 54.12 C16.46 37.28, 30.52 19.83, 47.02 0.47 M-1.29 59.79 C19.52 37.59, 39.93 15.1, 51.61 -1.78 M-0.53 61.43 C19.07 38.91, 36.66 18.67, 53.4 -0.95 M-1.69 65.42 C14.94 50.94, 31.26 32.57, 56.16 2.1 M-0.31 66.9 C13.77 51.15, 28.04 33.95, 58.14 -0.26 M-1.67 72.13 C13.5 56.02, 31.66 38.83, 62.58 -0.43 M0.29 72.13 C15.39 58.16, 28.09 41.22, 64.34 0.21 M-1.06 80.52 C13.35 62.64, 28.21 43.7, 66.86 0.45 M0.34 79.85 C22.75 52.71, 46.36 25.69, 69.07 -0.6 M-0.69 83.6 C15.22 68.81, 32.78 49.43, 72.77 -0.83 M0.4 85.75 C22.04 60.69, 43.09 36.95, 74 -0.4 M0.65 89.5 C22.29 66.3, 48.39 37.19, 80.93 -0.51 M0.6 90.65 C28.89 58.44, 58.55 24.59, 78.49 -0.32 M1.07 98.93 C34.11 60.33, 69.53 19.27, 86.36 1.14 M-0.36 98.44 C17.79 76.1, 37.17 54.68, 84.17 -0.81 M1.99 104.08 C30.68 68.39, 57.71 34.85, 91.57 0.56 M0.1 104.46 C20.19 80.69, 39.79 58.29, 90.07 -0.43 M0.47 109.59 C25.09 80.82, 50.2 50.84, 96.09 1.54 M0.84 108.89 C22.86 84.15, 46.04 56.65, 95.16 0.24 M3.39 114.45 C28.53 82.56, 53.1 55.28, 101.53 -0.03 M2.25 114.2 C21.26 91.16, 42.18 67.75, 101.49 -0.18 M8.54 112.71 C35.59 78.23, 65.42 45.48, 105.18 -1.57 M7.35 114.24 C33.49 84.47, 60.4 53.8, 106.74 0.25 M10.32 113.21 C35.98 87.73, 54.74 62.59, 113.06 -1.02 M12.51 113.52 C47.85 72.02, 85.08 29.38, 111.38 -0.04 M15.29 116.22 C51.58 72.06, 89.6 26.89, 116.78 -1.45 M17.02 114.23 C55.06 69.84, 95.4 24.36, 116.52 0.77 M23.77 112.58 C52.02 83.98, 76.72 51.47, 121.96 1.86 M23.77 112.96 C59.11 71.15, 97.51 28.47, 122.37 -0.71 M26.95 112.5 C64.72 71.74, 101.81 33.11, 126.5 0.39 M28.34 113.86 C68.34 68.99, 107.2 23.57, 127.56 1.33 M32.41 112.14 C56.24 87.73, 77.82 60.38, 131.55 1.8 M33.6 114.75 C56.91 88.1, 78.07 64.55, 132.08 -0.16 M37.23 114.39 C69.31 79.2, 103.8 40.71, 136.52 0.63 M38.76 114.36 C60.13 90.75, 80.55 65.8, 137.42 1 M45.47 115.48 C65.56 86.87, 86.72 62.23, 142.69 -1.02 M44.03 114.39 C76.1 76.76, 107.08 40.41, 144.11 -0.56 M49.35 113.71 C83.12 71.56, 120.83 32.7, 148.23 1.2 M49.67 114.75 C74.27 86.44, 101.09 56.92, 147.84 0.36 M54.7 112.13 C92.3 67.98, 134.32 21.77, 155.78 -1.43 M54.6 113.64 C76.41 87.57, 99.73 60.4, 153.04 0.68 M58.09 115.23 C88.15 82.59, 116.41 50.36, 159.52 -0.01 M59.47 114.8 C91.48 75.44, 126.07 37.4, 159 -0.76 M64.36 115.6 C103.99 72.23, 140.08 28.55, 164.73 0.67 M65.31 113.54 C96.47 77.79, 126.51 43, 163.44 -0.09 M71.73 114.69 C90.6 88.76, 113.9 62.43, 170.84 0.84 M70.55 114.04 C101.69 77.37, 134.08 40.73, 168.6 -0.23 M77.28 113.38 C114.44 71.17, 151.97 27.25, 174.99 -1.63 M75.67 113.38 C102.78 82.4, 131.52 50.68, 174.85 0.24 M82.11 112.79 C118.22 69.58, 159.89 24.72, 179.14 -0.43 M80.27 114.79 C106.43 84.75, 133.26 54.67, 180.8 -0.7 M84.8 112.9 C123.33 74.12, 157.02 31.71, 185.55 -0.26 M85.65 113.72 C111.38 84.79, 135.18 57.17, 184.82 0.56 M90.58 113.24 C118.79 77.24, 149.58 44.39, 191.93 1.98 M91.97 113.1 C120.42 82.37, 149.05 50.04, 191.25 -0.52 M96.79 115.58 C117.17 89.08, 139.89 63.65, 194.93 -2.21 M96.73 113.4 C123.89 81.72, 150.74 51.46, 195.87 0.51 M102.03 112.66 C136.87 73.76, 175.87 31.34, 201.24 1.82 M101.98 113.83 C133.2 79.51, 162.06 45.07, 202.09 -0.78 M107 115.57 C147.21 73.21, 182.62 29.81, 207.16 0.52 M108.19 115.25 C129.52 87.26, 154.47 58.94, 206.49 -0.5 M114.88 114.69 C143.36 79.87, 170.56 44.83, 213.63 -1.17 M112.63 113.56 C140.41 83.67, 167.08 51.05, 212.94 -0.31 M117.67 114.7 C145.02 84.96, 174.53 50.35, 217.82 0.89 M118.78 114.12 C150.01 75.49, 185.66 37.74, 218.18 -0.27 M123.08 115.91 C151.99 79.71, 181.63 46.03, 224.18 0.7 M123.22 113.66 C163.22 71.29, 200.44 27.55, 221.92 -0.67 M129.62 113.05 C149.93 87.1, 173.62 63.27, 228.02 -1.17 M127.76 114.41 C150.07 88.89, 172.41 65.04, 228.41 -0.88 M134.13 115.88 C161.33 82.52, 190.05 50.27, 234.54 1.1 M135.03 113.27 C158.62 87.39, 182.93 57.88, 232.6 0.83 M138.85 115.92 C175.23 73.65, 206.42 34.38, 237.75 0 M138.55 113.99 C163.44 87.22, 186.5 59.84, 238.99 1.15 M143.02 115.11 C172.03 82.59, 196.57 54.03, 242.84 1.66 M144.33 114.28 C172.3 81.59, 199.46 48.93, 243.07 0.16 M149.89 112.55 C175.04 82.84, 201.95 55.38, 250.48 -1.24 M149.01 114.02 C186.32 71.62, 223.79 28.41, 249.66 0.78 M154.3 113.11 C187.47 79.67, 220.49 42.71, 253.77 -2.02 M155.38 114.35 C191.45 72.06, 229.1 29.33, 254.88 -0.43 M161.79 114.19 C198.25 70.82, 233.72 30.38, 259.27 0.69 M160.53 113.92 C194.88 73.86, 229.18 34.74, 259.21 0 M164.06 114.34 C194.06 82.2, 222.21 48.07, 264.56 1.63 M165.42 113.93 C203.05 72.68, 240.86 29.58, 266.08 0.54 M170.15 116.02 C193.52 87.83, 212.86 65.15, 271.34 1.61 M170.97 114.38 C200.41 81.87, 229.55 49.69, 271.03 -0.16 M177.9 114.23 C198.47 87.22, 222 63.17, 274.95 -1.84 M175.66 113.19 C198.99 87.66, 222.79 59.24, 276.2 0.85 M181.1 115.22 C207.94 82.79, 234.81 47.36, 281.46 -1.72 M181.65 114.35 C207.24 83.01, 234.1 51.41, 281.52 0.05 M188.96 113.17 C224.3 72.88, 262.75 26.27, 285.22 1.08 M186.33 113.1 C213.96 81.22, 241.5 50.55, 287.25 -0.48 M193.28 112.91 C230.31 66.07, 270.24 23.06, 289.93 -1.54 M192.42 114.06 C230.7 70.53, 268.13 26.46, 291.07 0.17 M199.91 114.54 C219.22 90, 240.01 66.92, 298.19 -2.14 M197.6 114.39 C227.31 80.24, 254.95 47.49, 296.72 -0.15 M203.89 112.2 C240.24 72.7, 275.47 28.16, 300.57 -1.14 M202.57 113.97 C226.99 84.74, 251.43 57.85, 301.04 0.52 M208.95 114.67 C245.75 74.46, 280.9 33.87, 309.18 -0.06 M208.66 114.54 C230.56 86.51, 253.2 60.36, 308.59 0.4 M214.64 112.16 C244.41 81.15, 274.45 45.01, 310.74 -0.85 M213.9 113.85 C243.76 80.64, 273.58 46.63, 312.77 -0.85 M219.82 112.88 C245.14 84.33, 272.21 54.31, 320.09 0.76 M218.66 112.82 C254.49 73.29, 289.54 32.9, 318.34 0 M225.78 113.83 C254.57 80.64, 283.05 43.85, 321.32 -0.01 M223.7 113.71 C254.79 77.08, 286.13 39.92, 322.6 0.91 M231.12 114.18 C262.95 72.14, 302.25 30.5, 329.31 1.68 M229.1 114 C258.07 82.44, 288.31 47.8, 327.91 -1.26 M234.09 114.23 C269.93 71.35, 309.53 30.49, 334.75 0.99 M235.71 114.83 C263.59 80.01, 295.27 43.62, 334.85 0.4 M240.96 116.32 C272.34 75.59, 302.72 37.38, 337.77 -1.93 M239.42 114.37 C271.47 76.05, 304.09 38.98, 338.74 -1.02 M246.88 112.32 C276.65 77, 312.15 38.22, 344.96 -1.25 M245.19 114.74 C283.08 70.01, 321.64 27.37, 344.81 0.97 M249 116.26 C285.64 71.45, 318.4 30.82, 350.3 1.99 M250.08 115.22 C285.34 75.43, 318.72 35.01, 350.09 1.1 M256 115.06 C279.44 84.67, 308.27 54.72, 355.45 0.81 M255.87 114.28 C285.62 79.2, 314.84 44.36, 355.78 -0.23 M261.12 113.18 C292.97 76.46, 324.35 39.3, 360.19 1.23 M260.17 114.88 C288.69 80.77, 317.05 47.55, 360.67 -0.52 M267.81 115.36 C293.18 82.25, 320.27 49.61, 365.23 -0.29 M266.97 114.51 C299.72 74.66, 333.28 38.29, 366.02 0.69 M270.7 115.24 C294.49 89.07, 318.79 57.86, 371.33 1.81 M271.77 114.43 C301.45 77.98, 332.16 44.08, 371.72 0.03 M277.22 114.1 C312.8 72.55, 351.52 28.05, 374.84 -1.07 M278.18 113.77 C314.76 69.08, 353.75 24.46, 375.8 -0.6 M280.65 113.54 C320.56 70.24, 357.93 28.44, 382.78 -1.05 M282.96 114.73 C320.05 69.68, 358.12 26.13, 380.6 0.18 M289.67 114.15 C321.35 73.94, 356.53 34.7, 388.36 -1.06 M288.69 114.68 C317.14 78.51, 347.25 43.45, 386.33 0.32 M293.43 116.19 C324.94 77.08, 355.86 44.41, 390.12 -0.15 M292.79 113.39 C323.44 79.06, 353.86 42.77, 391.18 0.6 M299.12 114.31 C327.8 82.19, 356.32 50.61, 399.4 -0.82 M298.17 113.11 C331.65 75.35, 363.99 39.05, 396.86 -0.35 M305.03 114.23 C337.84 77.85, 370.33 37.4, 403.48 1.68 M304.29 113.8 C337.66 73.95, 371.16 34.88, 402.79 0.25 M310.08 115.38 C337.62 79.78, 367.23 48.74, 409.1 0.03 M309.77 113.2 C333.06 84.98, 357.69 57.51, 407.59 0.35 M314.95 115.68 C337.83 88.24, 361.75 58.91, 413.52 1.56 M313.47 114.09 C347.21 77.42, 378.76 40.36, 413.26 -0.65 M319.57 114.13 C355.75 72.25, 390.02 29.65, 420.12 0.88 M319.12 114.35 C345.95 81.19, 374.69 50.35, 418.71 -0.86 M324.24 115.55 C353.85 83.79, 380.29 50.2, 425.42 -1.39 M324.36 114.19 C361.05 74.06, 395.8 34.59, 423.9 0.38 M331.16 113.27 C358.09 82.54, 387.44 47.32, 430.67 -1.95 M331.36 114.24 C364.68 73.87, 400.49 33.87, 429.4 -0.48 M333.49 113.8 C360.32 85.53, 387.89 54.46, 432.9 -0.11 M335.93 114.77 C368.92 76.92, 400.54 38.39, 434.5 1.09 M340.27 116.26 C373.86 74.81, 408.18 36.84, 440.48 -1.15 M341.43 114.56 C362.64 86.33, 387.12 60.87, 440.81 -1.25 M344.79 113.35 C371.37 89.12, 393.81 62.24, 444.21 -1.56 M345.16 114.29 C365.25 89.28, 386.02 65.58, 444.34 -0.5 M350.86 114.26 C375.14 86.88, 398.41 61.39, 448.82 -0.44 M351.73 114.99 C372.02 89.08, 393.58 65.39, 451.1 -1.17 M355.78 114.11 C394.07 67.33, 433.93 25.24, 456.12 -0.72 M356.01 113.94 C389.23 74.55, 423.85 36.69, 455.18 0.89 M361.4 112.66 C393.41 77.55, 428.87 37.46, 460.49 -0.57 M361.19 114.77 C381.84 89.94, 403.71 64.27, 462.39 -0.42 M365.65 114.95 C408.47 70.73, 445.5 24.82, 467.96 1.37 M366.41 114.7 C400.65 75.59, 433.06 37.64, 466.28 0.8 M373.6 114.05 C396.63 85.76, 421.54 58.97, 471.14 -0.59 M372.85 114.63 C398.57 84.88, 425.49 53.94, 471.14 0.28 M377.08 115.69 C398.83 86.2, 423.5 63.99, 475.55 -0.32 M377.3 114.32 C417.87 70.5, 454.89 25.42, 477.35 0.04 M381.67 113.01 C404.97 89.22, 427.68 62.98, 483.95 1.18 M382.27 114.56 C406.9 84.18, 432.91 55.93, 481.76 -0.24 M390.31 115.16 C423.77 76.47, 456.64 35.45, 489.28 -0.89 M389.59 114.3 C425.76 71.32, 463.52 27.26, 487.62 -0.31 M394.35 114.08 C428.26 69.95, 466.56 27.65, 491.66 1.64 M394.47 114.83 C431.18 72.37, 470.02 28.77, 491.68 -0.15 M401.11 113.12 C431.18 77.34, 465.63 39.03, 500.04 0.55 M399.16 112.92 C434.43 74.89, 468.38 36.61, 498.79 0.11 M404.93 113.77 C431.25 82.34, 457.88 53.43, 505.19 -0.08 M404.97 114.98 C428.98 86.16, 453.93 59.87, 502.97 -0.59 M410.76 112.31 C433.08 90.43, 454.64 62.3, 509.29 -1.16 M409.91 114.21 C432 89.17, 453.17 65.61, 508.03 -0.12 M413.21 114.55 C443.58 82.32, 468.32 52.28, 514.98 0.1 M414.76 114.79 C435.53 90.47, 455.88 67.54, 514.67 0.04 M420.11 112.46 C444.09 88.51, 468.22 60.02, 518.97 0.83 M420.69 112.98 C449.1 80.19, 477.93 47.04, 519.03 -1.11 M423.55 114.88 C456.42 80.41, 483.43 44.98, 525.03 1.24 M425.33 113.33 C450.08 83.79, 474.64 55.73, 523.83 1.14 M431.5 112.23 C469.76 68.51, 509.8 25.44, 529.6 -0.72 M430.36 113.79 C466.16 74.59, 501.11 35.44, 530.93 -0.72 M434.81 115.18 C473.29 71.02, 511.75 26.5, 534.84 -0.64 M435.63 113.93 C465.74 81.94, 492.08 51.57, 534.45 0.84 M442.82 115.29 C470.33 82.89, 495.75 51.74, 542.19 -1.03 M442.74 113.99 C474.88 73.99, 508.45 35.72, 541.37 0.46 M446.4 115.81 C480.16 78.42, 513.39 41.11, 545.45 1.45 M447.13 113.17 C468.41 90.75, 489.98 66.7, 546.56 1.07 M453.5 112.25 C485.68 76.34, 517.18 40.69, 552.32 -1.38 M451.66 114.67 C482.76 80.17, 511.55 45.71, 551.47 0.09 M456.25 115.14 C488.88 81.98, 516.81 47.73, 557.46 -0.52 M456.74 113.93 C488.34 77.84, 519.31 42.81, 557.13 0.51 M461.83 115.45 C495.25 76.37, 527.38 39.85, 564.07 0.92 M463.25 114.46 C484.55 89.25, 507.61 63.6, 562.83 -0.89 M466.83 115.49 C500.43 74.04, 536.58 34.85, 568.96 0.38 M467.9 114.32 C493.41 83.14, 520.37 54.75, 567.15 -0.41 M473.6 113.93 C501.19 79.56, 533.34 43.31, 572.07 -1.45 M473.63 113.47 C496.05 89.83, 516.49 65.35, 572.56 -1.28 M479.14 113.15 C515.95 72.49, 550.41 32.45, 577.59 0.05 M479.51 114.73 C504.78 83.59, 531.42 53.9, 578.56 -0.48 M484.18 115.99 C509.88 86.14, 532.62 55.14, 582.81 0.89 M483.89 114.87 C514.83 78.11, 546.35 42.3, 583.56 0.15 M490.72 112.38 C520.93 79.47, 553.14 44.56, 586.52 1.36 M488.95 114.81 C525.75 70.93, 564.15 29.67, 589.31 -0.71 M495.11 116.1 C536.36 69.82, 575.43 25.16, 595.3 1.04 M493.8 114.8 C519.33 83.05, 546.9 52.63, 594.22 0.62 M501.61 115.4 C533.82 74.93, 571.2 35.43, 598.46 0.14 M499.09 114.5 C532.8 77, 564.87 38.27, 598.33 0.64 M503.46 113.74 C536.23 81.21, 566.38 44.04, 603.1 -1.69 M504.09 114.21 C543.55 67.47, 582.65 22.66, 603.4 0.88 M512.42 112.42 C546.37 72.75, 581.49 30.55, 609.64 -0.79 M511.29 112.97 C542.26 76.07, 574.47 39.18, 610.52 -0.94 M515.84 115.34 C535.44 85.84, 559.89 60.21, 614.95 1.26 M515.49 113.78 C542.8 83.36, 570.36 51.63, 614.16 1.21 M522.26 115.6 C558.07 68.6, 599.28 27.64, 619.83 -1.67 M520.39 113.68 C550.49 80.56, 579.3 48.73, 619.79 0.84 M526.4 112.29 C559.34 79.02, 587.68 42.78, 624.13 -1.6 M525.71 114.98 C553.97 83.3, 579.8 52.43, 625.99 1.12 M530.79 113.07 C570.18 69.28, 610.55 24.1, 630.31 0.25 M531.72 113.35 C566.46 74.09, 601.27 32.11, 630.01 0.01 M534.8 114.96 C574.73 71.15, 615.03 25.02, 634.46 0.19 M536.43 115.03 C559.69 86.47, 583.16 59.66, 635.89 0.42 M544.2 114.94 C576.45 72.22, 608.62 33.13, 641.91 0.68 M542.09 112.96 C580.05 68.39, 618.59 23.31, 642.04 -0.62 M548.25 114.69 C572.35 88.5, 593.12 58.94, 646.28 1.09 M548.34 113.93 C586.88 70.19, 624.69 24.63, 647.35 0.17 M553.21 115.27 C583.03 79.11, 611.94 45.99, 653 -1.7 M552.78 112.76 C582.48 79.23, 611.95 44.79, 652.74 -0.49 M559.47 113.79 C584.52 80.42, 613.94 50.72, 658.45 1.51 M558.09 113.43 C578.98 89.16, 602.01 64.02, 657.33 -0.3 M563.06 114.11 C593.14 76.32, 626.93 39.77, 661.46 0.77 M564.59 113.26 C591.63 82.09, 619.57 49.03, 661.94 -0.25 M568.74 115.54 C596.73 84.46, 621.05 54, 666.39 1.83 M569.34 114.05 C588.25 89.84, 608.8 66.45, 667.27 -0.41 M574.88 116.23 C606.75 73.75, 641.87 35.46, 674.71 -1.3 M574.1 115 C595.98 88.67, 617.89 62.63, 673.45 -0.81 M577.84 114.16 C602.7 86.9, 625.92 63.85, 680.04 0.42 M579.7 114.08 C609.6 81.31, 638.03 46.31, 678.13 0.71 M582.28 114.08 C618.75 76.52, 654.15 35.17, 683.71 -0.32 M583.39 114.51 C609.97 84.61, 637.78 54.85, 684.08 -0.31 M588.1 112.89 C625.09 77.08, 658.62 38.47, 689.85 -0.41 M589.8 114.58 C610.46 91.12, 631.55 67.45, 689.31 -0.82 M593.47 114.38 C632.9 71.45, 667.47 31.71, 692.93 -1.73 M595.03 113.87 C616.94 89.02, 638.82 64.15, 694.61 -1.1 M602.39 113.9 C638.81 69.32, 677.67 26.12, 700.83 -0.37 M600.23 114.37 C636.92 74.74, 671.41 34.01, 699.71 -0.61 M603.8 113.04 C629.2 86.63, 656.3 55.74, 705.74 -1.26 M605.73 114.65 C627.99 90.15, 649.1 66.51, 704.16 -0.04 M611.09 112.33 C643.74 73.1, 680.22 34.27, 710.51 0.8 M610.58 113.02 C639.85 80.45, 669.37 46.3, 710.73 -1 M617.19 113.94 C650.17 73.99, 686.76 33.06, 716.99 2.08 M616.69 113.69 C636.09 90.7, 656.18 67.29, 715.79 -0.48 M622.12 114.31 C646.44 87.31, 669.95 59.32, 718.94 1.33 M622.41 113.9 C653.08 76.47, 683.64 40.93, 721.23 -0.07 M628.06 114.93 C645.68 89.57, 669.98 64.14, 721.85 6.54 M626.6 114.1 C652.55 84.05, 679.2 55.7, 720.33 7.32 M630.93 114.93 C653.2 88.86, 669.49 66.58, 719.57 12.24 M632.27 113.11 C652.03 89.32, 673.99 65.66, 719.42 12.19 M639.4 113.84 C664.46 82.27, 692.05 52.85, 718.94 18.56 M636.63 114.26 C664.57 83.37, 691.2 51.19, 720.52 18.03 M642.51 112.24 C664.45 86.42, 687.22 63.23, 719.34 24.12 M642.71 114.55 C671.19 82.59, 699.74 51.18, 719.95 25.66 M648.69 114.46 C668.05 94.08, 685.33 69.75, 719.63 31.49 M647.43 114.81 C662.16 97.9, 678.03 79.4, 721.3 31.09 M653.37 113.27 C665.71 97.07, 682.37 82.33, 721.23 37.86 M653.23 112.85 C678.17 86.9, 703.37 58.09, 721.49 37.79 M657.97 112.55 C682.73 83.8, 706.23 58.38, 718.96 44.47 M658.13 113.64 C681.09 89.31, 702.5 64.41, 719.72 42.48 M665.55 112 C684.87 90.21, 706.5 68.15, 719.44 47.56 M663.35 114.43 C677.77 98.17, 690.09 84.32, 720.85 49.59 M667.8 113.83 C683.48 96.43, 695.84 80.83, 721.41 55.32 M669.37 114.94 C687.85 91.65, 708.7 69.79, 719.76 54.68 M676.63 115.41 C691.89 93.76, 704.17 77.08, 720.67 59.29 M675.55 114.48 C687.76 98.94, 699.45 84.2, 721.32 61.3 M679.26 116.01 C693.25 95.6, 709.51 83.17, 719.09 67.09 M680.23 114.14 C690.75 101.39, 703.39 87.47, 721.43 68.19 M685.73 113.42 C694.99 102.28, 706.74 89.31, 721.54 73.84 M686.31 113.92 C696.44 99.54, 709.1 87.26, 721.01 74.18 M691.99 114.74 C697.3 107.29, 705.5 99.66, 720.24 79.07 M691.33 114.94 C696.85 106.89, 703.96 98.93, 720.36 79.55 M694.82 113.69 C701.24 106.31, 705.52 102.01, 721.12 85.72 M696.43 115.24 C705.67 102.87, 713.8 92.1, 720.52 86.51 M702.14 113.66 C706.43 109.58, 711.46 100.36, 722.67 89.5 M701.72 114.3 C708.38 105.89, 714.07 98.68, 720.2 91.04 M705.38 112.58 C709.77 109.33, 715.34 105.15, 719.07 97.65 M706.66 114.39 C710.92 108.33, 715.67 104.44, 719.92 97.09 M712.2 114.23 C715.2 109.09, 719.36 105.55, 719.51 102.97 M711.93 113.65 C714.37 110.29, 717.13 107.87, 720.72 104.36 M716.72 114.13 C718.08 113.39, 719.23 111.71, 720.61 110.34 M716.81 114.34 C718.07 112.58, 719.45 111.26, 720.67 109.63" stroke="#ced4da" stroke-width="0.5" fill="none"></path><path d="M-0.59 0.05 C214.64 2.46, 430.51 2.73, 719.73 0.35 M-0.3 -0.18 C270.55 3.08, 541.12 2.76, 720.29 0.08 M722.2 1.34 C719.98 40.45, 720.68 83.67, 721.07 112.4 M721.27 0 C720.16 22.24, 720.96 44.82, 720.04 113.18 M720.84 113.1 C443.81 113.74, 165.6 113.26, 0.25 112.66 M720.54 112.31 C445.06 112.02, 170.81 111.94, 0.4 112.32 M1.8 110.99 C-2.24 70.1, -0.46 29.79, -1.88 1.31 M0.83 113.22 C-1.26 71.73, 0.28 29.33, 0.73 -0.69" stroke="#000000" stroke-width="1" fill="none"></path></g><g transform="translate(238.18576388888886 363.40060763888914) rotate(0 132.5 12.5)"><text x="132.5" y="18" font-family="Virgil, Segoe UI Emoji" font-size="20px" fill="#000000" text-anchor="middle" style="white-space: pre;" direction="ltr">Terraform Provider UCloud</text></g><g stroke-linecap="round" transform="translate(10 150.10546875000023) rotate(0 173.6371527777778 51.14800347222217)"><path d="M0 0 C0 0, 0 0, 0 0 M0 0 C0 0, 0 0, 0 0 M0.25 6.38 C0.62 4.11, 3.01 3.26, 4.77 1.15 M-0.3 6.34 C0.93 4.89, 2.22 3.66, 4.62 0.05 M0.8 10.72 C4.97 7.14, 9.19 2.55, 11.9 0.55 M0.21 11.84 C3.59 7.82, 5.6 5.59, 10.09 0.13 M-2.11 17.43 C4.7 15.51, 6.31 10.75, 15 0.62 M-0.47 18.38 C4.96 12.49, 10.27 5.02, 16.55 -0.67 M0.46 25.45 C7.42 15.83, 13.07 9.95, 19.7 1.34 M0.69 24.27 C7.06 15.29, 14 8.17, 20.71 -0.9 M-0.84 31.76 C6.08 22.82, 14.14 14.41, 27.23 0.22 M-0.33 30.15 C5.67 22.97, 12.2 17.12, 26.53 0.08 M-0.44 37.99 C9.09 22.66, 21.83 12.52, 32.41 -1.02 M0.1 36.15 C9.23 26.32, 17.73 17.52, 31.79 0.64 M-0.94 40.69 C6.89 34.5, 15.97 23.93, 35.46 0.11 M0.35 41.54 C11.31 30.31, 21.72 17.03, 36.85 -0.62 M1.56 47.87 C15.16 28.41, 30.26 10.97, 41.9 1.11 M-0.18 49.26 C15.69 30.21, 33.96 11.49, 43.06 0.42 M0.81 54.09 C13.73 41.19, 22.74 30.16, 46.02 -1.18 M0.62 54.03 C9.69 43.64, 18.95 32.51, 47.65 -0.24 M-0.24 60.73 C18.21 35.89, 41.43 15.14, 54.76 -0.25 M0.52 60.69 C20.33 38.48, 40.78 14.38, 52.16 0.6 M-2.07 67.12 C12.78 54.95, 25.21 38.46, 59.2 0.38 M0.65 68.31 C20.91 43.55, 40.6 22.25, 57.32 -0.28 M2.07 75 C18.67 53.93, 36.1 31.54, 62.49 1.47 M-0.25 72.75 C15.02 55.95, 31.45 37.76, 63.48 0.79 M-1.11 79.2 C18.5 58.3, 37.88 39.58, 67.27 0.38 M-0.68 80.31 C24.17 49.41, 48.82 22.57, 69.51 0.75 M0.36 84.61 C24.83 57.72, 45.88 31.25, 75.6 1.37 M0.38 84.75 C23.98 58.06, 50 28.95, 75.19 -0.9 M1.14 92.56 C17.63 69.83, 36.26 50.14, 80.44 -0.08 M-0.65 90.71 C21.42 67.09, 41.22 43.65, 80.14 0.31 M-0.15 97.82 C23.04 72.58, 42.98 49.05, 85.55 1.05 M-1.16 98.73 C29.88 62.89, 61.48 27.94, 84.22 -0.88 M0.44 102.45 C36.11 65.17, 67.37 22.68, 88.93 -0.36 M1.49 102.14 C26.3 74.34, 52.49 44.88, 90.41 0.88 M5.56 101.33 C41.48 65.27, 72.47 24.92, 94.76 -1.31 M6.74 102.65 C40.94 63.35, 75.59 23.08, 95.25 -1.08 M12.02 102.82 C38.71 69.44, 67.28 37.9, 100.88 1.71 M10.82 101.94 C30.18 79.41, 49.75 56.93, 99.75 0.89 M15.33 101.95 C46.54 67.88, 79.64 33.85, 106.64 -1.04 M16.74 103.03 C34.39 81.72, 52.45 62.06, 105.76 0.07 M21.07 104.06 C44.81 76.23, 67.27 47.41, 112.43 -0.17 M22.14 102.8 C49.82 70.08, 77.92 37.16, 110.89 -0.23 M28.31 101.05 C51.99 75.51, 76.61 48.05, 114.9 -0.16 M26.16 102.4 C60.89 63.16, 95.88 24.23, 116.3 1.36 M33.57 101.75 C67.97 66.65, 96.98 27.48, 121.7 1.24 M31.86 102.57 C65.77 65.28, 98.38 27.87, 122.82 0.92 M38.24 104.22 C61.89 76.02, 84.04 50.57, 128.19 -0.43 M37.16 101.98 C56.88 79.74, 77.22 57.82, 126.19 0.82 M44.5 102.03 C80.14 60.11, 116.12 18.01, 130.75 0.7 M43.17 102.59 C61.92 80.48, 79.64 59.46, 131.78 0.75 M46.81 104.62 C72.09 72.99, 99.73 44.65, 136.16 -0.83 M49.19 101.98 C80.21 64.92, 113.23 27.71, 138.52 1.2 M55.78 103.55 C75.76 73.45, 99.18 46.33, 143.61 -1.5 M53.02 102.69 C72.09 80.81, 90.6 58.15, 142.29 -0.36 M57.68 104.9 C87.25 71.96, 113.43 40.62, 150.09 1.47 M59.94 102.59 C77.87 82.98, 95.32 61.53, 147.82 0 M66.32 103.5 C89.27 72.1, 119.72 39.61, 152.31 -1.53 M65.1 102.18 C86.02 77.97, 106.34 53.86, 154.13 -1.06 M70.5 103.28 C100.02 70.28, 130.7 35.75, 160.21 1.8 M70.39 102.98 C98.74 70.46, 125.19 38.69, 158.38 1.21 M73.32 104.34 C105.4 66.79, 140.56 29.58, 162.82 -2.02 M74.24 103.6 C96.96 77.55, 120.4 51.48, 165.34 0.01 M78.86 103.48 C97.93 81.86, 117.07 61.79, 169.74 2.04 M79.77 102.32 C110.17 66.74, 142.11 30.45, 169.25 0.3 M84.93 104.81 C114.44 70.25, 144.74 35.14, 173.08 -2.1 M85.99 102.73 C111.18 71.54, 138.65 40.38, 175.24 -0.82 M92.34 104.77 C124.12 60.99, 158.98 24.48, 180.87 0.6 M90.57 102.76 C126.22 61.77, 163.09 22.28, 179.24 -0.79 M94.31 102.46 C113.71 79.91, 131.34 61.09, 187.01 0.66 M95.71 104.08 C127.77 65.78, 159.16 31.04, 185.4 0.76 M102.47 103.94 C133.05 68.67, 159.97 32.27, 188.73 -1.6 M101.57 102.41 C120.9 79.63, 139.66 57.19, 189.95 -0.63 M108.24 104.59 C125.43 77.6, 149.45 56.4, 196.5 0.21 M106.16 102.9 C127.65 78.32, 147.52 54.48, 196.66 0.06 M112.77 101.33 C148.78 62.2, 180.31 18.95, 199.46 0.91 M112.79 102.4 C146.53 64.63, 180.44 24.99, 200.73 0.71 M116.44 103.04 C152.11 62.06, 184.92 26.26, 207.39 0.03 M117.9 102.91 C148.15 67.88, 178.56 32.24, 206.15 0.36 M124.72 102.78 C146.29 73.83, 172.6 44.27, 212.13 0.15 M122.53 101.83 C154.15 66.18, 183.97 30.16, 211.68 0.62 M129.65 104.18 C148.68 79.98, 167.45 57.39, 217.52 -0.85 M128.2 103.34 C153.89 73.2, 178.32 44.03, 218.22 -0.06 M131.76 101.69 C168.39 62.91, 202.64 24.59, 220.81 0.62 M134.35 102.77 C166.99 63.9, 199.69 25.93, 222.7 1.01 M137.53 102.93 C162.38 73.51, 187.31 47.18, 226.66 -1.91 M138.16 103.89 C159.89 76.09, 182.04 50.47, 227.52 -0.95 M145.3 100.98 C164.83 78.46, 186.67 53.52, 232.52 1.4 M144.07 103.29 C164.54 78.29, 184.11 54.39, 232.43 -0.78 M150.73 104.72 C174.8 72.49, 200.42 43.92, 237.93 1.7 M149.61 103.74 C172.42 76.36, 193.94 50.51, 237.3 -0.32 M152.73 103.1 C187.22 68.07, 214.03 32.22, 245.25 -1.92 M154.8 102.45 C178.78 73.69, 205.07 44.54, 243.29 -0.86 M158.89 103.51 C190.27 69.48, 220.35 35.19, 250.36 2.08 M160.13 102.55 C182.46 76.14, 206.28 48.7, 249.05 -0.46 M163.41 104.03 C190.03 74.36, 216.44 44.42, 253.96 0.78 M165.89 103.29 C197.79 64.22, 231.27 25.15, 254.45 0.08 M168.58 103.8 C199.1 70.56, 223.58 39.58, 261 1.11 M170.11 103.48 C197.99 70.27, 225.68 38.38, 259.53 -0.4 M174.65 103.29 C209.67 65.67, 240.94 29.13, 264.59 0.15 M175.96 101.81 C208.62 65.63, 241.76 27.29, 264.86 -0.11 M181.35 102.63 C200.07 80.34, 219.53 56.02, 269.5 1.47 M181.67 102.18 C213.44 65.26, 244.27 30.15, 270.46 0.06 M185.1 102.67 C208.83 79.69, 230.34 53.5, 276.04 1.39 M185.25 102.79 C205.52 81.11, 225.22 57.68, 276.23 -0.14 M191.75 103.55 C220.2 69.06, 251.11 36.79, 279.51 1.35 M191.71 103.75 C210.77 80.29, 229.72 59.32, 280.81 0.08 M195.31 101.25 C221.67 73.16, 247.88 45.82, 286.17 -1.8 M197.23 103.69 C222.94 74.19, 249.15 43.45, 286.03 -0.2 M201.25 102.65 C239.16 60.6, 272.58 19.43, 292.63 0.5 M202.9 103.81 C225.94 75.44, 248.08 50.35, 291.8 0.83 M205.87 101.88 C225.51 84.12, 245.67 62.27, 297.82 -1.16 M207.66 102.26 C228 79.31, 246.93 56.83, 296.51 -1.02 M212.32 102.57 C235.08 78.3, 256.08 53.2, 302.42 -1.82 M212.66 103.45 C240.55 72.32, 265.38 42.3, 301.94 0.45 M217.97 102.22 C236.38 79.12, 254.11 57.52, 308.8 0.09 M218.22 102.44 C240.89 75.21, 264.02 49.28, 307.67 -0.84 M222.39 102.45 C255.76 61.34, 293.22 23.62, 312.44 -0.83 M224.19 102.24 C250.55 72.06, 276.7 43.04, 311.99 1.08 M226.77 101.41 C254.87 74.81, 281.11 42.47, 317.88 1.26 M228.88 102.18 C261.95 65.37, 294.44 26.65, 318.29 -0.42 M233.87 103.99 C268.32 64.34, 301.08 26.57, 322.18 -0.18 M233.45 103.24 C257.17 76.16, 280.25 50.34, 323.98 -0.18 M239.42 102.18 C267.86 71.3, 290.74 43.22, 330.81 -1.81 M238.84 102.4 C264.19 74.74, 290.27 43.63, 328.9 -0.01 M244.11 101.39 C271.66 71.13, 300.52 40.12, 333.13 1.97 M244.16 101.99 C275.94 65.88, 305.26 30.97, 334.21 -0.22 M249 104.75 C272.44 79.23, 294.17 53.15, 338.3 1.26 M249.59 104.02 C272.55 76.09, 295.82 49.67, 338.81 -0.4 M255.46 103.41 C279.1 72.16, 302.17 45.17, 342.74 -0.98 M254.81 103.53 C287.91 65.01, 320.66 28.85, 344.24 -0.97 M260.61 104.88 C281.99 76.4, 306.4 52.29, 348.72 2.87 M259.89 102.94 C288.36 69.99, 318.72 35.87, 349.77 1.61 M265.23 103.32 C292.39 72.9, 317.43 42.68, 347.85 9.42 M265.67 103.37 C290.66 76.06, 312.73 49.99, 349.33 7.2 M269.26 103.87 C286.86 84.09, 307.12 63.59, 348.84 13.52 M270.74 103.02 C291.52 81.02, 310.39 58.42, 349.75 12.27 M275.69 100.94 C298.91 78.66, 320.14 50.42, 350.48 20.63 M275.75 102.49 C299.13 77.92, 319.24 53.01, 349.21 20.32 M281.99 102.55 C299.6 81.79, 321.75 60.74, 348.82 25.37 M282.42 103.14 C304.23 75.88, 328.93 48.93, 348.88 25.43 M288.08 100.61 C300.71 88.93, 313.38 71.77, 347.91 32.08 M287.85 102.39 C308.43 77.12, 330.37 51.41, 349.16 30.88 M291.75 103.28 C312.39 77.29, 335.04 53.18, 348.54 37.41 M291.49 102.14 C307.39 85.1, 322.65 67.78, 348.84 38.74 M296.61 101.21 C311.12 87.01, 323.52 72.21, 349.48 43.3 M297.52 102.03 C311.07 88.58, 323.97 71.91, 349.82 42.92 M303.5 103.94 C321.5 84.63, 337.36 63.63, 348.92 51.41 M303.75 103.86 C314.83 88.67, 326.49 74.8, 349.09 50.59 M305.81 102.89 C324.44 86.36, 338.81 69.52, 349.8 56.09 M307.41 103.62 C322.2 86.48, 338.71 69.71, 349.42 57.19 M312.16 103.95 C325.94 88.09, 340.08 71.6, 348.48 62.95 M313.29 102.11 C323.09 93.67, 331.05 83, 348.55 62.1 M319.15 102.07 C329.69 93.35, 340.48 80.54, 349.46 69.5 M318.94 102.57 C326.39 93.55, 334.77 84.04, 349.42 69.18 M324.61 102.27 C333.58 93.56, 340.34 83.68, 348.71 76.11 M323.43 103.7 C333.33 92.69, 342.69 82.63, 349.87 74.88 M329.08 101.99 C335.17 95.68, 338.25 91.81, 349.03 82.41 M329.28 103.06 C335.66 95.4, 340.92 89.16, 349.59 80.6 M333.7 103.38 C337.73 97.16, 341.63 94.64, 347.41 86.28 M333.81 103.4 C337.29 99.91, 340.8 95.06, 347.83 86.77 M338.28 103.49 C340.92 102.02, 342.85 98.59, 349.44 92.49 M339.24 103.74 C342.99 99.94, 345.07 96.71, 349.38 93.17 M345.04 102.88 C346.55 102.24, 347.1 100.62, 348.27 98.99 M345.29 102.8 C346.5 101.44, 347.42 100.22, 348.67 99.18" stroke="#12b886" stroke-width="0.5" fill="none"></path><path d="M-1.23 -0.58 C78.86 0.99, 158.79 1.63, 347.89 -0.27 M0.19 0.33 C104.68 1.31, 209.99 1.09, 347.1 0.43 M348.12 -1.07 C344.78 40.7, 346.83 80.49, 346.25 101.3 M347.07 0.11 C347.31 41.14, 345.61 80.58, 348.03 101.83 M346.52 101.48 C246.92 104.2, 147.34 105.69, 0 101.63 M347.54 102.48 C237.5 101.69, 128.02 101.55, -0.38 102.22 M1.65 103.66 C2.36 64.06, 0.38 24.96, 0.79 -0.49 M-0.13 102.21 C0.28 76.54, -0.62 49.53, 0.14 0.93" stroke="#000000" stroke-width="1" fill="none"></path></g><g transform="translate(108.6371527777778 188.7534722222224) rotate(0 75 12.5)"><text x="75" y="18" font-family="Virgil, Segoe UI Emoji" font-size="20px" fill="#000000" text-anchor="middle" style="white-space: pre;" direction="ltr">Terarform CDK</text></g><g stroke-linecap="round" transform="translate(381.82291666666674 149.7517361111111) rotate(0 173.6371527777778 51.14800347222217)"><path d="M0 0 C0 0, 0 0, 0 0 M0 0 C0 0, 0 0, 0 0 M-0.78 6.45 C1.43 4.54, 4.29 1.49, 4.67 -0.27 M-0.24 6.01 C0.82 4.62, 2.78 3.41, 4.78 0.29 M1.67 10.85 C3.09 8.74, 5.37 7.55, 11.51 -0.89 M-0.42 11.56 C3.27 8.47, 4.66 5.63, 11.3 0.34 M1.47 20.25 C3.36 11.61, 8.38 6.99, 15.26 -0.92 M-0.46 18.4 C4.03 13.85, 7.36 11.01, 16.41 -0.08 M1.46 24.74 C3.01 18.47, 8.6 12.66, 22.96 -0.49 M0.62 24.8 C8.32 15.36, 15.33 5.33, 21.46 -0.49 M-1.73 29.76 C5.06 23.17, 13.89 16.31, 24.68 1.8 M-0.26 30.38 C8.8 20.39, 17.47 10.59, 26.7 0.45 M-1.03 36.71 C8.27 30.48, 14.38 20.15, 29.94 1.24 M0.21 36.22 C8.68 27.46, 16.52 17.24, 31.53 0.65 M0.08 43.18 C10.06 28.7, 23.26 17.04, 37.28 1.19 M-0.19 43.34 C12.54 28.01, 26.16 11.79, 36.59 0.06 M0.36 49.57 C14.54 34.19, 26.41 16.35, 44.26 1.34 M-0.05 48.3 C11.36 37.26, 21.36 25.99, 43.17 -1.01 M2.08 56.13 C12.9 37.83, 29.03 22.42, 48.86 0.04 M0.44 54.25 C11.09 42.65, 22.44 31.58, 47.09 -0.51 M0.42 61.25 C19.65 38.63, 41.75 13.13, 51.45 -1.4 M-0.62 60.36 C20.07 38.92, 38.09 17.71, 54.14 -0.35 M0.79 66.55 C22.95 40.05, 41.91 17.24, 56.2 -0.36 M-0.08 66.8 C21.59 41.36, 43.06 17.57, 57.97 1 M-0.47 71.42 C17 54.89, 28.35 37.95, 65.03 -0.65 M-0.54 72.45 C20.39 49.02, 42.31 26.4, 63.48 0.77 M-1.36 77.62 C15.45 56.94, 35.89 35.88, 67.05 1.85 M-0.21 79.41 C18.96 56.75, 37.77 35.28, 68.76 -0.68 M1.07 84.3 C19.63 61.61, 39.74 42.93, 72.48 -0.54 M0.91 85.13 C14.58 67.29, 29.5 50.01, 74.47 0.43 M-1.9 92.34 C23.65 64.18, 44.1 36.3, 78.11 -0.96 M-0.12 90.75 C19.72 66.92, 41.86 42.46, 79.77 0.66 M0.71 99.4 C22.6 74.29, 44.13 49.29, 85.23 -1.7 M0.58 97.18 C24.15 67.7, 49.59 39.99, 85.68 -0.29 M-1.11 103.72 C26.39 75.55, 48.73 44.1, 89.06 0.11 M0.58 102.95 C27.25 73.22, 53.1 43.82, 89.06 -0.27 M4.99 103.69 C40.54 65.25, 74.59 26.65, 96.71 0.8 M4.93 102.8 C29.93 75.49, 54.05 48.44, 95.95 -0.31 M11.22 104.48 C47.42 62.02, 80.01 19.03, 100.57 0.5 M11.1 102.32 C45.43 62.75, 79.25 23.71, 101.49 0.71 M16.2 101.25 C50.12 64.06, 84.46 24.36, 108.3 -0.59 M16.02 102.26 C36.59 81.87, 54.07 58.19, 105.35 0.41 M22.28 100.77 C50.38 71.1, 80.45 39.09, 112.23 0.17 M22.88 102.06 C58.7 61.54, 92.93 21.09, 111.64 0.26 M29.01 103.7 C56.35 65.7, 86.23 29.83, 114.69 0.87 M27.05 103.32 C60.69 63.96, 95.56 22.79, 115.6 0.67 M31.04 100.94 C57.72 74.98, 80.97 46.04, 120.65 1.63 M33.47 102.01 C56.37 75.24, 81.35 47.9, 122.88 0.55 M39.61 103.92 C70.48 61.66, 105.54 23.82, 128.52 1.19 M38.57 103.94 C64.25 73.25, 89.33 42.98, 127.64 -0.03 M44.44 100.9 C78.6 63.96, 113.17 23.47, 133.38 -0.09 M43.67 103.01 C72.38 68.52, 101.38 34.73, 132.34 0.2 M47.2 103.31 C79.69 65.43, 111.78 29.02, 138.43 0.16 M48.89 102.59 C82.61 63.1, 117.2 24.97, 136.68 0.08 M55.41 102.05 C84.59 65.84, 114.29 30.9, 142.94 0.56 M54.56 101.87 C73.17 78.56, 95.27 55.19, 143.93 -0.66 M59.92 101.81 C89.66 70.05, 114.33 39.14, 149.68 0.36 M59.11 103.19 C89.02 67.16, 121.53 30.77, 147.9 0.99 M64.82 101.36 C93.57 71.15, 119.37 36.68, 152.83 1.68 M64.49 102.39 C99.29 61.66, 134.15 20.54, 153.3 0.58 M68.89 103.89 C90.3 79.39, 113.23 53.23, 157.48 1.89 M70.07 102.16 C91.07 75.91, 113.57 49.91, 158.7 0.66 M74.87 102.05 C95.16 77.78, 116.46 54.26, 163.51 -0.11 M75.41 103.11 C105.43 66.06, 136.58 28.76, 164.89 0.01 M82.19 104.53 C114.03 63.79, 152.27 20.57, 169.05 0.41 M79.4 103.4 C113.27 65.42, 145.18 26.55, 169.79 0.06 M85.7 104.63 C117.03 69.08, 148.88 33.64, 174.41 0.34 M84.5 103.3 C105.98 78.29, 128.94 52.09, 174.88 0.19 M90.9 103.28 C117.86 73.14, 140.71 46.13, 181.54 1.07 M90.47 103.3 C121.12 66.07, 152.59 30.5, 180.1 0.13 M97.44 101.41 C115.63 78.25, 138.35 57.42, 185.93 -1.27 M95.25 102.46 C122.01 71.28, 149.52 40.44, 186.25 -0.8 M103.02 102.2 C128.72 72.45, 152.51 44.11, 192.08 0.58 M101.43 103.73 C127.17 74.45, 152.53 44.29, 189.87 0.79 M106.85 103.46 C138.26 65.22, 168.97 31.58, 197.44 -0.74 M107.07 102.33 C135.86 69.25, 167 33.4, 195.7 -0.43 M113.55 103.87 C142.23 70.14, 169.06 39.8, 199.79 1.17 M112.19 103.06 C132.27 80.31, 153 57.37, 201.56 -0.05 M116.65 103.38 C152.77 64.66, 184.41 24.93, 205.27 0.7 M117.62 102.64 C143.85 72.24, 170.45 40.61, 206.75 -0.66 M122.47 101.43 C150.38 73.69, 175.49 41.73, 211.74 0.61 M123.44 103.11 C144.59 76.88, 165.11 52.23, 212.94 0.52 M129.56 101.32 C149.26 76.53, 172.43 54.02, 216.74 -1.69 M127.85 102.1 C152.97 71.77, 180.89 41.24, 216.63 -0.99 M132.68 104.51 C159.42 76.4, 183.48 46.32, 220.95 -1.81 M133.62 102.22 C166.84 63.47, 201.39 23.22, 222.02 -0.63 M138.22 102.95 C158.13 79.45, 179.94 54.08, 228.12 -2.09 M138.95 103.39 C170.25 65.43, 203.78 27.52, 227.39 0.58 M144.11 101.32 C171.93 68.4, 204.43 35.08, 232.46 0.74 M143.93 102.19 C173.21 69.24, 204.03 33.08, 234.07 0.36 M147.28 101.46 C180.06 69.83, 207.85 34.85, 237.99 -1.4 M149.39 102.19 C177.22 70.75, 204.24 39.17, 238.14 1.29 M155.6 104.57 C181.16 74.71, 205.01 47.45, 245.22 0.62 M155.36 103.31 C183.89 69.39, 213.61 34.88, 244.64 -0.65 M159.33 103.6 C184.75 73.81, 211.65 41.13, 247.88 -0.27 M159.91 102.17 C186.08 73, 211.04 44.59, 248.75 -0.41 M167.02 101.5 C194.28 68.54, 228.83 30.31, 254.19 1.71 M165.64 103.38 C188.71 76.53, 210.51 51.62, 254.55 -0.84 M168.96 103.62 C203.49 66.98, 235.55 29.76, 260.31 -0.52 M170.51 101.96 C202.92 64.7, 237.45 26.91, 258.9 0.69 M177.15 103.9 C203.34 72.3, 227.18 43.33, 264.28 1.44 M176.29 102.64 C205.54 68.51, 233.71 34.31, 264.87 0.61 M180.69 101.32 C210.38 66.28, 241.9 29.2, 271.44 1.77 M181.45 102.21 C200.47 81.58, 218.35 58.24, 269.65 0.52 M185.11 102.84 C213.85 72.7, 240.07 41.45, 276.38 0.75 M184.91 103.6 C207.6 78.83, 230.02 54.52, 275.94 -0.49 M191.05 104.03 C219.76 69.67, 250.96 35.6, 280.39 -0.93 M192.26 102.51 C209.65 81.42, 229.56 59.22, 279.87 -0.49 M194.97 103.64 C225.41 72, 249.55 42.94, 285.35 -1.86 M196.87 102.98 C215.46 80.85, 235.52 58.46, 286.38 -0.36 M202.5 104.61 C236.27 63.17, 272.23 26.51, 291.23 -1.61 M202.73 102.48 C227.64 73.04, 253.92 45.57, 291.17 -0.45 M205.78 104.43 C244.33 64.41, 278.36 20.96, 297.99 -0.39 M206.3 103.26 C235.81 69.52, 265 35.31, 296.06 -0.24 M213.49 103.44 C233.21 78.48, 251.98 57.41, 303.03 -0.76 M211.94 102.69 C242.41 66.49, 274.39 30.87, 302.93 1.03 M216.23 103.12 C242.08 75.4, 268.57 44.12, 307.11 0.71 M217.78 102.62 C236.35 82.98, 254.94 62.86, 307.12 0.65 M224.45 102.44 C259.74 62.58, 294.65 22.3, 311.82 -0.3 M223.2 103.71 C242.05 80.96, 262.51 58.76, 313.3 -0.17 M229.95 104.15 C250.19 77.2, 271.7 53.97, 317.46 0.51 M228.65 102.77 C255.69 69.15, 284.51 37.48, 318.95 0.02 M235.75 103.07 C260.11 76.04, 284.52 47.13, 324.57 -1.65 M233.11 103.09 C260.82 73.51, 286.89 43.85, 324.2 0.29 M237.57 104.47 C264.81 73.16, 292.27 42.49, 327.78 -0.37 M239.99 103.85 C265.32 74, 290.69 44.1, 329.25 -0.38 M245.74 104.31 C266.25 80.39, 285.69 57.56, 333.27 0.32 M244.53 102.37 C269.5 73.7, 295.54 45.72, 334.3 0.27 M250.68 103.6 C274.25 74.29, 300.38 46.24, 340.75 -1.79 M249.69 103.54 C285.69 62.75, 321.24 22.37, 338.93 0.14 M256.76 100.68 C282.81 70.86, 311.12 41.15, 344.84 -0.73 M255.58 102.07 C281.46 71.9, 310.14 40.41, 344.04 0.08 M259.83 101.56 C294.89 63.48, 328.06 23.47, 347.73 -0.58 M259.37 103.95 C281.49 78.14, 302.75 53.72, 347.9 1.78 M265.08 104.21 C294.56 69.45, 324.69 36.72, 348.61 6.91 M266.66 102.69 C295.57 68.14, 325.96 35.2, 348.08 7.09 M272.55 104.91 C302.66 66.61, 331.68 32.06, 349.48 13.52 M271.42 102.73 C294.36 75.54, 318.24 49.59, 348.74 13.29 M274.98 102.49 C293.98 84.43, 311.01 62.62, 350.09 20.97 M277.41 101.73 C293.13 83.72, 311.42 63.83, 348.02 20.56 M283.33 104.74 C298.26 85.79, 314.91 68.35, 349.14 25.43 M282.02 101.97 C307.53 72.51, 334.57 43.68, 348.72 26.5 M288.67 100.62 C302.79 85.89, 318 68.51, 349.04 32.14 M287.76 102.65 C303.8 84.21, 318.51 65.16, 349.53 31.75 M291.63 102.68 C309.4 85.11, 322.81 68.5, 346.58 39.92 M292.1 103.26 C312.02 79.1, 333.6 53.8, 349.15 38.56 M296.35 103.25 C313.68 84.06, 328.19 64.98, 348.27 44.22 M296.9 101.91 C313.98 82.24, 331.01 65.23, 348.12 42.92 M303.89 100.88 C316.64 84.27, 332.96 66.18, 349.7 49.52 M302.33 102.68 C315.3 88.99, 327.06 74.19, 349.65 50.85 M309.53 101.3 C314.32 95.05, 325.04 83.63, 346.9 56.27 M307.62 102.71 C316.28 92.85, 326.45 82.93, 349.41 56.57 M311.5 104.03 C321.3 92.99, 327.94 84.96, 347 61.56 M314.2 103.79 C325.25 89.45, 337.07 77.4, 349.73 62.99 M317.67 102.95 C327.79 94.35, 336.17 81.89, 348.99 69.63 M317.95 102.97 C329.73 90.49, 338.83 78.55, 348.75 69.42 M324.84 101.34 C332.01 95.47, 337.19 86.79, 348.96 72.91 M324.92 102.63 C332.34 92.32, 341.64 82.62, 349.2 74.56 M330.2 104.2 C334.84 93.26, 342.64 85.66, 349.59 82.41 M328.22 102.85 C336.15 93.33, 343.89 85.7, 348.29 79.94 M335.24 104.56 C341.39 95.49, 344.47 90.81, 349.37 88.71 M334.48 102.73 C338.51 98.4, 340.32 96.63, 348.46 86.92 M340.73 103.61 C342.93 99.53, 346.72 96.68, 347.82 92.54 M338.97 102.87 C342.1 99.88, 344.36 97.7, 348.66 92.4 M345.22 102.55 C346.03 101.81, 347.55 100.64, 348.92 98.56 M345.13 102.58 C346.34 101.68, 347.36 100.38, 348.47 99" stroke="#228be6" stroke-width="0.5" fill="none"></path><path d="M-0.91 -1.31 C107.95 0.45, 214.59 0.2, 348.4 -0.05 M-0.15 0.46 C76.16 0.76, 152.07 1.12, 346.7 0.51 M348.42 1.38 C347.51 21.22, 347.41 44.33, 348.09 100.98 M348.1 -0.74 C348.81 34.62, 347.38 67.09, 347.07 102.23 M347.71 103.27 C240.09 104.29, 131.7 105.67, -0.81 101.99 M346.97 102.8 C223.75 101.75, 99.01 102.39, -0.24 102.13 M0.31 101.96 C2.1 74.21, -0.99 42.79, 1.22 0.79 M-0.26 101.44 C0.09 64.75, 1.31 25.98, 0.06 0.03" stroke="#000000" stroke-width="1" fill="none"></path></g><g transform="translate(526.4600694444445 188.74262152777783) rotate(0 29 12.5)"><text x="29" y="18" font-family="Virgil, Segoe UI Emoji" font-size="20px" fill="#000000" text-anchor="middle" style="white-space: pre;" direction="ltr">Pulumi</text></g><g stroke-linecap="round" transform="translate(10.607638888888914 10.997395833333485) rotate(0 173.6371527777778 51.14800347222217)"><path d="M0 0 C0 0, 0 0, 0 0 M0 0 C0 0, 0 0, 0 0 M-0.71 6.9 C1.63 4.31, 4.56 0.96, 4.44 -0.08 M0.09 6.28 C1.72 4.4, 3.26 2.95, 4.74 0.01 M-1 10.67 C3.74 9.13, 3.05 7.24, 10.49 -0.01 M-0.09 12.03 C1.98 8.93, 4.58 7.33, 10.95 -0.33 M1.07 16.5 C4.67 10.67, 11.94 6.21, 16.89 0.5 M-0.4 18.5 C5.26 13.08, 10.09 8.32, 14.66 0.78 M-1.14 22.79 C6.81 14.78, 16.52 6.07, 20.99 -1.45 M-0.67 24.45 C5.53 18.31, 10.01 13.72, 21.74 0.71 M1.57 30.67 C8.31 18.81, 21.34 7.57, 27.9 -1.03 M0.98 31.12 C7.2 22.27, 13.61 15.01, 25.29 0.79 M-2.12 35.91 C9.94 24.85, 19.71 13.85, 31.45 0.34 M-0.09 35.91 C10.84 24.11, 22.03 10.41, 31.49 0.2 M1.98 43.56 C12.26 28.79, 21.59 15.39, 35.16 -0.32 M0.23 42.8 C10.23 32.15, 19.99 20.63, 36.77 1.15 M-2.03 48.83 C14.34 34.73, 29.66 15.83, 41.86 -0.87 M-0.76 49.75 C16.31 32.03, 31.71 14.63, 42.41 -1.04 M0.7 56.56 C15.04 35.03, 30.06 19.09, 46.71 -1.37 M-0.69 53.61 C18.59 34.43, 35.06 13.25, 47.62 -0.72 M0.89 61.9 C14.33 46.1, 28.28 29.48, 54.79 -1.36 M0.99 61.31 C21.13 37.17, 42.6 12.89, 54.13 0.17 M-1.99 65.77 C15.26 52.95, 29.53 33.7, 58.13 0.79 M-1.02 66.69 C11.76 53.65, 24.43 40.75, 57.31 -0.65 M0.61 71.74 C24.99 45.14, 46.4 18.09, 65.33 -1.42 M0.46 73.96 C15.74 56.39, 30.57 37.44, 64.75 0.26 M0.7 81.02 C15.57 63.65, 30.3 46.72, 70.54 2.08 M0.49 80.13 C25.41 50.5, 51.68 19.43, 69.33 -0.69 M0.61 85.87 C23.51 58.27, 48.92 29.9, 75.1 0.6 M0.93 84.84 C23.01 60.29, 46.32 33.76, 73.85 -0.06 M0.09 92.34 C24.9 64.56, 49.46 32.54, 80.56 -0.59 M0.57 90.58 C21.48 68.17, 43.47 44.36, 80.12 -0.13 M-0.77 97.6 C30.41 62.47, 60.32 30.39, 86.25 -1.65 M0.02 98.59 C17.37 76.59, 35.28 55.07, 85.53 -0.83 M1.39 104.24 C35.85 64.94, 72.25 24.34, 90.36 0.63 M1.78 102.46 C21.72 78.5, 41.67 54.07, 90.14 -0.5 M4.25 102.11 C36.89 71.48, 64.43 37.19, 95.48 -0.57 M5.2 102.58 C28.57 77.57, 50.83 51.56, 95.33 0.19 M12.84 101.38 C34.05 76.92, 54.4 54.1, 101.66 -1.4 M10.66 102.6 C31.71 80.61, 51.43 59.92, 100.81 -0.54 M17.77 102.12 C43.29 73.33, 71.39 42.81, 108 -0.6 M15.74 103.5 C41.16 76.42, 64.68 47.44, 107.3 0.5 M20.18 102.28 C39.54 82.78, 57.63 60.51, 109.68 1.12 M21.24 103.02 C52 68.68, 82.13 33.62, 111.54 0.73 M28.81 102.36 C56.07 67.48, 85.95 34, 114.9 0.56 M26.27 102.83 C47.88 78.98, 67.1 56.34, 116.31 0.61 M33.54 104.1 C66.74 66.05, 100 28.69, 121.19 0.96 M32.85 102.67 C57.3 73.73, 80.97 46.8, 122.73 -0.9 M38.5 103.21 C59.2 77.14, 81.83 53.2, 125.77 -1.08 M37 103.53 C58.48 78.91, 79.18 55.58, 127.68 0.05 M43.58 103.99 C76.1 65.79, 107.81 27.81, 132.48 1.86 M43.32 101.77 C71.05 71.47, 98.33 38.96, 132.75 0.11 M49.53 104.06 C77.14 71.22, 107.73 36.23, 138.78 -1.29 M48.12 102.32 C72.03 74.61, 96.29 46.02, 138.27 0.87 M55.48 101.03 C89.27 61.78, 121 23.29, 143.38 0.54 M53.96 102.8 C77.61 75.49, 101.73 47.58, 142.97 0.05 M60.08 101.23 C92.66 64.95, 125.54 28.33, 149.26 -0.64 M58.8 102.7 C86.82 69.42, 115.59 35.16, 148.04 -0.37 M62.96 102.31 C95.73 66.14, 127.41 32.88, 155.24 0.68 M64.56 103.51 C100.26 62.14, 134.19 22.61, 154.73 -1 M69.89 102.03 C94.21 73.47, 122.16 46.7, 159.08 -1.7 M70.22 101.92 C89.07 78.56, 109.66 54.54, 158.46 1.16 M73.61 101.62 C104.04 67.9, 138.89 27.59, 164.97 -1.07 M73.75 102.68 C96.76 76.99, 119.77 51.65, 164.38 -0.2 M78.23 102.74 C101.33 77.71, 125.66 51.55, 170.65 0.92 M80.5 102.01 C99.55 81.32, 117.74 58.64, 169.49 -0.45 M85.53 102.45 C105.82 80.86, 125.68 56.07, 174.96 -1.09 M84.59 104.06 C107.06 77.79, 128.49 51.72, 174.22 -0.96 M89.89 102.6 C121.54 65.67, 157.58 26.71, 180.91 -1.44 M91.79 102.75 C125.1 64.9, 156.63 26, 180.55 1.15 M97.36 104.55 C126.82 69.04, 157.57 31.54, 187.19 1.2 M95.68 103.97 C122.55 71.46, 150.6 40.47, 185.57 0.09 M101.2 101.83 C120.22 79.47, 140.02 57.5, 191.32 -1.45 M101.2 102.7 C135.72 63.12, 170.96 22.74, 191.57 -0.4 M104.96 102.86 C127.05 78.99, 144.36 56.25, 197.13 1.36 M106.76 103.22 C140.28 64.85, 174.65 24.56, 195.69 0.08 M114.02 103.6 C137.79 73.24, 164.82 39.14, 201.88 -1.83 M111.82 102.18 C131.09 81.76, 148.28 62.08, 201.95 0.79 M118.68 102.29 C150.02 67.75, 180.09 32.7, 207.79 -0.08 M117.03 102.87 C147.67 69.3, 177.43 34.19, 206.88 -1.08 M121.73 104.06 C142.9 80.26, 159.08 62.44, 213.12 -1.31 M121.74 102.27 C153.31 67, 184.48 31.94, 211.58 -0.14 M129.45 103.72 C158.92 66.03, 188.44 31.27, 215.73 0.37 M128.19 103.28 C153.68 72.1, 180.18 41.63, 217.37 0.26 M135.25 102.34 C149.27 80.6, 167.82 63.4, 224.11 -0.66 M133.03 101.83 C153.39 77.38, 174.6 53.4, 221.82 0.24 M138.69 102.02 C172.59 60.4, 209.55 21.32, 229.01 -0.83 M137.44 103.06 C163.55 74.41, 188.27 44.07, 228.41 0.53 M145.05 102.52 C168.61 71.89, 194.6 42.43, 234.43 -0.69 M144.73 102.46 C166.33 77.67, 189.33 51.06, 232.54 0.62 M148.38 104 C183.09 62.72, 220.38 22.01, 236.59 0.51 M148.44 102.07 C179.62 66.48, 210.88 30.83, 238.57 0.68 M155.09 103.66 C184.18 69.97, 216.02 34.72, 242.21 -0.24 M153.89 103.56 C177.39 77.84, 197.41 53.93, 243.08 -0.05 M159 102.46 C181.2 76.34, 200.38 52.1, 248.92 -0.73 M160.33 102.46 C185.53 74.86, 209.08 44.48, 249.36 0.16 M164.9 101.78 C194.84 66.31, 224.51 32.81, 254.11 1.84 M164.52 103.27 C186.69 76.65, 208.69 53.2, 255.26 0.44 M171.6 102.15 C200.03 70.02, 229.98 38.55, 260.02 -0.41 M170.77 103.63 C197.35 71.94, 222.44 41.73, 260.32 0.46 M175.52 103.87 C205.06 65.63, 237.44 30.55, 263.3 0.64 M176.62 103.5 C208.13 63.82, 240.14 26.65, 264.38 0.59 M181.73 101.79 C201.12 78.83, 221.78 53.62, 272.08 1.8 M180.87 103.26 C209.91 68.82, 239.56 35.38, 270.64 1.07 M186.86 102.66 C220.57 62.59, 256.09 21.73, 275.51 -0.77 M186.54 103.68 C214.48 70.18, 242.5 37.9, 276.25 0.14 M193.48 104.1 C213.24 77.79, 236.93 50.79, 280.84 1.2 M192.24 102.28 C221.47 67.28, 251.34 31.69, 281.46 -0.77 M198.36 103.56 C221.95 73.21, 249.24 42.98, 286.98 -1.33 M196.55 102.76 C217.12 79.19, 237.51 54.54, 286.14 -0.9 M201.48 101.73 C227 71.44, 253.6 43.32, 289.56 2.07 M201.97 101.9 C222.77 80.85, 241.09 57.69, 290.94 0.98 M206.99 103.23 C230.08 76.88, 253.01 50.5, 298.5 -0.06 M207.96 102.7 C231.39 74.97, 256.05 45.84, 297.82 0.75 M212.88 103.31 C242.59 69.88, 271.3 36.91, 303.05 -0.34 M213.63 102.57 C239.49 71.36, 265.66 42.43, 301.2 0.1 M215.93 104.54 C249.94 65.08, 280.74 29.49, 309.38 -1.95 M218.72 102.47 C240.79 75.64, 262.35 50.27, 308.52 0.65 M225.37 103.46 C251.78 69.9, 279.99 33.11, 313.62 -1.83 M224.28 103.04 C242.32 81.72, 259.29 62.68, 313.36 -0.85 M227.87 103.32 C260.23 65.27, 291.89 28.15, 319.45 -0.08 M227.73 103.81 C261.88 65.31, 294.04 26.86, 317.99 -0.4 M233.16 100.74 C272.02 63.2, 307.12 19.25, 323.13 0.79 M233.47 103.31 C252.8 82.19, 271.46 61.72, 322.51 0.45 M239.05 102.39 C267.11 72.11, 294.72 41.19, 327.09 -1.52 M239.93 102.24 C264.94 73.66, 291.96 43.8, 329.43 -1.31 M245.01 103.69 C262.51 81.63, 281.02 61.09, 332.98 -0.34 M244.22 103.63 C273.12 69.94, 300.46 39.34, 334.75 -0.92 M249.23 101.51 C268.47 78.19, 287.56 55.57, 339.22 -1.39 M249.19 104.02 C273.16 75.04, 296.14 49.9, 338.55 0.24 M254.19 100.82 C285.54 68.5, 316.3 32.58, 346.08 1.92 M256.05 103.55 C287 66.93, 317.08 31.38, 344.13 -0.11 M259.71 103.43 C289.37 70.95, 316.85 36.94, 347.94 0.67 M259.41 103.19 C297.18 62.42, 330.96 21.39, 349.23 0.39 M264.52 102.61 C295.25 68.58, 326.62 31.72, 350.32 7.18 M265.95 102.85 C286.75 80.6, 306.94 57.54, 349.15 8.04 M271.32 103.86 C289.67 86.63, 303.44 64.99, 347.35 12.55 M271.45 102.56 C287.97 84.98, 305.12 65.26, 349.24 14.06 M276.34 103.51 C306.25 69.61, 332.8 41.65, 348.32 19.49 M277.41 102.6 C305.47 70.58, 334.66 37.78, 349.47 19.91 M282.41 101.48 C303.02 77.3, 325.31 52.47, 346.49 25.21 M282.15 102.69 C301.02 81.22, 321.56 59.46, 348.29 25.59 M288.51 103.93 C300.12 85.45, 316.3 67.95, 347.51 30.35 M287.39 102.12 C304.98 82.42, 323.26 60.66, 349.04 31.1 M290.87 103.95 C305.02 89.3, 317.01 74.03, 347.7 37.92 M291.35 102.93 C313.29 78.68, 334.13 54.52, 349.31 38.86 M296.46 104.26 C313.15 82.88, 333.71 64.27, 348.96 42.74 M297.34 102.01 C312.46 87.3, 325.45 70.72, 349.87 43.54 M304.12 101.88 C310.45 91.72, 322.05 82.29, 349.87 50.14 M302.86 102.36 C315.31 88.21, 328.32 72.19, 348.77 50.3 M309.44 103.6 C316.58 90.34, 327.25 82.54, 348.57 57.39 M307.54 103.89 C324.29 85.01, 340.69 65.38, 348.29 56.65 M313.11 102.86 C326.41 86.11, 339.68 68.61, 349.1 60.59 M313.49 102.87 C322.21 92.28, 331.29 81.66, 348.29 62.85 M319.26 102.76 C327.83 88.35, 341.41 75.86, 349.77 67.71 M318.71 102.36 C329.07 91.05, 339.52 78.9, 348.59 69.37 M322.34 101.45 C328.63 94.59, 338.3 88.42, 348.02 73.93 M324.02 102.07 C333.34 92.36, 341.19 84.13, 348.94 73.72 M330.24 102.8 C335.73 94.99, 339.58 89.35, 349.54 82.37 M329.12 102.57 C334.42 95.49, 341.66 88.38, 348.07 79.67 M335.8 101.16 C337.7 95.51, 342.37 92.12, 349.12 87.53 M334.22 102.38 C338.18 100.19, 341 95.82, 347.65 86.12 M339.84 103.72 C342.45 101.3, 344.38 95.91, 347.59 92.33 M339.99 102.47 C343.29 99.97, 346.38 96.06, 348.72 92.53 M345.74 103.18 C345.85 101.62, 347.07 100.57, 348.29 98.85 M345.44 102.54 C345.91 102.02, 346.8 101.13, 348.63 99.04" stroke="#12b886" stroke-width="0.5" fill="none"></path><path d="M-0.12 0.26 C84.45 -0.52, 167.78 -1.11, 346.84 1.08 M-0.16 -0.19 C76.56 1.1, 153.79 0.25, 347.43 0.21 M346.74 1.74 C349.3 34.03, 346.04 68.99, 347.42 101.06 M348.26 0.65 C346.57 36.29, 347.89 71.97, 348.18 103.08 M348.1 103.18 C273.27 101.01, 198.41 101.98, 0.22 101.89 M347.89 102.02 C243.91 104.89, 141.68 104.75, 0.13 102.39 M-0.77 100.6 C-1.93 75.39, -1.74 44.02, -1.26 -1.21 M0.47 103.29 C0.27 67.2, 1.03 30.24, 0.52 -0.4" stroke="#000000" stroke-width="1" fill="none"></path></g><g stroke-linecap="round"><g transform="translate(133.27777777777766 305.8485243055561) rotate(0 -1.7561990987509546 -17.643379834832444)"><path d="M0.91 0.19 C0.36 -5.54, -3.7 -29.41, -4.42 -35.47 M-0.08 -0.76 C-0.15 -6.22, -1.51 -28.38, -2.18 -34.16" stroke="#000000" stroke-width="1" fill="none"></path></g><g transform="translate(133.27777777777766 305.8485243055561) rotate(0 -1.7561990987509546 -17.643379834832444)"><path d="M5.48 -19.5 C3.23 -21.18, 0.68 -25.17, -1.73 -33 M6.08 -18.27 C3.39 -22.95, -0.48 -28.3, -1.68 -34.42" stroke="#000000" stroke-width="1" fill="none"></path></g><g transform="translate(133.27777777777766 305.8485243055561) rotate(0 -1.7561990987509546 -17.643379834832444)"><path d="M-6.52 -18.49 C-6.32 -20.47, -6.42 -24.66, -1.73 -33 M-5.93 -17.26 C-4.48 -22.3, -4.22 -27.99, -1.68 -34.42" stroke="#000000" stroke-width="1" fill="none"></path></g></g><g transform="translate(172.94791666666652 276.50564236111154) rotate(0 32 12.5)"><text x="0" y="18" font-family="Virgil, Segoe UI Emoji" font-size="20px" fill="#000000" text-anchor="start" style="white-space: pre;" direction="ltr">TFGen</text></g><g stroke-linecap="round"><g transform="translate(637.9774305555558 300.10199652777806) rotate(0 1.3315128592332144 -15.038727407542524)"><path d="M-0.33 -0.74 C-0.02 -5.87, 0.2 -26.6, 0.69 -31.56 M1.7 1.48 C2.49 -3.41, 2.88 -24.57, 2.99 -30.23" stroke="#000000" stroke-width="1" fill="none"></path></g><g transform="translate(637.9774305555558 300.10199652777806) rotate(0 1.3315128592332144 -15.038727407542524)"><path d="M7.05 -16.48 C6.56 -17.07, 6.91 -20.63, 3.64 -30.97 M8.44 -16.19 C7.25 -19.01, 5.57 -22.12, 2.62 -30.87" stroke="#000000" stroke-width="1" fill="none"></path></g><g transform="translate(637.9774305555558 300.10199652777806) rotate(0 1.3315128592332144 -15.038727407542524)"><path d="M-3.62 -16.71 C-1.93 -17.22, 0.61 -20.74, 3.64 -30.97 M-2.23 -16.42 C-1.08 -19.28, -0.43 -22.34, 2.62 -30.87" stroke="#000000" stroke-width="1" fill="none"></path></g></g><g transform="translate(456.94878472222223 271.1193576388889) rotate(0 83 12.5)"><text x="0" y="18" font-family="Virgil, Segoe UI Emoji" font-size="20px" fill="#000000" text-anchor="start" style="white-space: pre;" direction="ltr">Pulumi TF Bridge</text></g><g transform="translate(54.7265625 48.89713541666674) rotate(0 139 14)"><text x="0" y="21" font-family="Virgil, Segoe UI Emoji" font-size="20px" fill="#000000" text-anchor="start" style="white-space: pre;" direction="ltr">TSPythonJavaC#Go</text></g><g stroke-linecap="round" transform="translate(385.7638888888889 10) rotate(0 173.63715277777783 51.14800347222217)"><path d="M0 0 C0 0, 0 0, 0 0 M0 0 C0 0, 0 0, 0 0 M-0.94 5.69 C1.15 4.68, 3.13 2.69, 4.81 0.02 M-0.34 6.72 C1.62 3.78, 3.85 2.17, 4.94 0.09 M-1.3 11.77 C2.91 7.21, 9.22 2.1, 9.8 -1.35 M-0.37 12.81 C3.92 7.66, 6.88 4.08, 11.4 0.74 M-0.31 18.93 C6.76 12.97, 8.37 6.95, 16.51 0.51 M-0.15 17.71 C5.85 11.37, 11.19 6.42, 15.93 -0.58 M-0.64 25.03 C6.93 17.52, 9.26 11.49, 19.99 -1.61 M1.15 23.9 C7.24 16.01, 13.69 7.76, 20.66 0.71 M0.96 28.51 C6.62 19.99, 15.87 11.46, 25.86 0.27 M0.9 31.41 C7.77 20.09, 17.47 10.72, 26.59 0.08 M-0.67 35.13 C9.73 24, 20.39 14.83, 30.68 -0.85 M-0.54 36.3 C12.79 22.91, 25.62 8.61, 32.12 -0.31 M0.93 42.84 C13.23 31.49, 23.26 15.68, 36.79 -0.61 M0.44 42.22 C11.4 27.75, 25.71 13.75, 37.39 0.68 M-1.85 48.69 C14.96 31.34, 29.56 13.26, 43.88 1.42 M0.09 48.87 C15.86 29.54, 32.73 10.16, 41.86 0.39 M0.22 54.33 C13.12 38.03, 28.69 25.7, 48.05 0.4 M0.2 53.83 C13.48 39.06, 26.49 25.67, 48.37 0.48 M0.29 60.63 C19.09 38.8, 36.09 18.37, 53.37 -1.04 M0.23 60.81 C20.31 36.95, 40.99 13.98, 52.78 0.09 M-1.69 69.15 C14.63 49.51, 32.71 29.43, 58.94 1.81 M0.23 67.47 C22.07 40.88, 45.59 14.25, 58.03 0.01 M-0.6 73.08 C20.09 49.54, 40.31 25.45, 62.44 0.51 M0.22 73.86 C24.32 45.17, 49.3 15.7, 63.76 -0.18 M-1.83 78.17 C15.52 61.37, 32.56 42.32, 67.24 0.1 M0.54 79.85 C15.45 61.4, 32.44 43.05, 68.38 0.07 M-0.33 86.14 C24.58 57.52, 52.68 26.69, 73.92 -0.2 M-0.16 85.98 C27.02 53.47, 56.36 21.96, 74.67 -0.61 M0.37 91.46 C18.79 70.04, 38.79 47.3, 79.32 -0.28 M0.14 90.71 C25.69 61.74, 51.63 30.37, 79.89 0.71 M1.15 96.65 C34.1 59.02, 67.75 20.36, 84.15 1.5 M0.75 97.19 C28.02 64.72, 59.02 31.08, 85.36 0.36 M0.28 104.58 C31.41 62.94, 67.83 23.35, 88.04 -0.93 M1.35 102.05 C24.16 74.96, 49.95 44.78, 90.53 0.27 M6.33 102.34 C42.09 60.7, 77.97 21.83, 97.05 -0.73 M5.93 102.7 C25.43 78.94, 45.83 56.73, 96.65 -0.92 M13.35 104.24 C42.87 68.11, 70.67 36.52, 98.8 0.56 M11.99 102.84 C33.69 79, 53.19 54.31, 100.76 0.34 M17 103.48 C37.32 81.21, 55.78 54.79, 106.01 -2.29 M15.69 103.55 C47.04 68.37, 77.92 31.6, 105.36 -0.36 M21.54 102.01 C40.94 79.78, 59.9 57.07, 111.55 0.51 M22.87 101.68 C45.91 75.69, 69.76 47.49, 110.49 0.78 M26.88 101.33 C57.02 66.92, 88.26 32.15, 115.35 -0.82 M27.17 102.07 C62.98 61.83, 96.87 21.84, 116.64 -0.34 M32.17 103.09 C60.62 71.28, 89.23 42.77, 122.75 -0.73 M33.6 102.63 C66.06 62.63, 98.81 24.31, 122.16 0.71 M38.83 103.84 C63.65 73.02, 88.62 43.05, 128.84 -1.29 M38.61 102.58 C62.31 73.99, 87.37 46.39, 127.59 0.27 M42.11 103.67 C70.82 70.68, 100.07 39.8, 131.39 -0.88 M43.76 103.51 C69.62 73.66, 95.34 43.68, 131.66 -0.48 M50.2 104.94 C66.47 79.77, 84.95 57.68, 135.86 -1.4 M47.73 103.64 C65.6 82.8, 84.43 62.34, 138.33 -0.38 M55.74 100.9 C79.85 75.45, 103.34 44.93, 145.02 -1.68 M53.95 102.9 C78.33 74.58, 102.58 46.79, 143.39 -0.13 M58.91 102.49 C92.48 64.8, 123.02 26.34, 147.95 -0.68 M58.71 103.11 C81.26 78.52, 102.19 52.09, 147.6 0.87 M62.98 102.9 C93.62 67.35, 122.85 31.3, 153.68 1.1 M64.73 103.14 C90.23 73.18, 115.7 43.56, 153.21 0.68 M69.39 104.36 C86.95 82.98, 106.32 59.81, 160.19 -1.64 M69.26 103.09 C104.06 63.8, 139.11 25.52, 159.14 -0.05 M72.63 103.5 C107.48 68.47, 136.67 30.89, 163.98 -0.35 M75 104.13 C97.7 77.36, 122.76 49.71, 163.49 0.13 M78.61 102.36 C103.76 76.99, 127.98 48.97, 169.17 0.12 M79.53 102.96 C98.36 80.6, 118.38 59.62, 168.68 0.56 M84.99 101.26 C121.35 62.76, 155.91 21.78, 177.03 0.14 M85.61 103.22 C104.35 80.57, 121.87 60.73, 176.05 0.68 M90.07 102.29 C115.3 71.2, 143.11 41.65, 179.05 2.03 M91.17 102.35 C116.36 73.09, 140.25 45.98, 180.93 1.15 M93.9 101.96 C127.8 65.77, 161.5 27.89, 186.49 0.71 M96.41 102.81 C123.31 72.1, 149.58 42.62, 185.24 0.04 M99.8 101.9 C133.14 70.12, 159.63 36.19, 191.48 0.44 M102.34 102.17 C132.16 69.34, 162.32 33.01, 190.58 -0.04 M107.43 101.58 C135.25 67.8, 167.26 35.42, 196.55 1.45 M105.92 102.33 C126.16 80.69, 144.16 58.6, 196.85 0.21 M110.35 100.93 C128.64 81.93, 150.28 60.25, 199.68 0.69 M112.64 103.6 C138.19 73.97, 162.31 44.14, 201.3 -0.03 M117.13 105.1 C149.83 62.42, 183.13 24.19, 207.92 -1.55 M117.62 103.95 C151.2 65.08, 184.89 25.14, 207.17 0.42 M120.83 103.07 C146.56 73.05, 172.65 41.65, 210.38 -0.91 M122.19 103.07 C142 80.87, 161.83 58.34, 212.76 -0.06 M128.13 104.43 C163.29 63.78, 198.02 23.26, 215.85 -2.27 M126.99 103.61 C156.81 70.93, 184.64 36.6, 218 0.2 M132.85 101.99 C159.64 71.57, 185.65 40.54, 221.84 0.91 M132.57 103.28 C169.62 60.47, 204.69 21.63, 221.6 -0.61 M137.05 104.49 C158.93 81.34, 174.77 59.33, 228.13 1.31 M138.48 102.03 C168.13 72.14, 195.36 38.77, 227.59 0.32 M144.57 103.31 C168.03 73.22, 193.23 47.13, 233.85 -1.59 M143.86 102.2 C168.86 74.69, 192.03 46.38, 232.45 -0.39 M150.08 101.14 C179.54 67.05, 212.75 31.81, 238.4 1.92 M148.54 103.68 C179.93 67.93, 209.78 33.97, 239.03 0.58 M152.67 102.65 C177.43 75.99, 199.74 51.05, 245.75 0.77 M153.62 102.06 C175.33 76.51, 197.92 50.46, 242.92 0.66 M160.91 103.22 C180.25 76.52, 200.93 52.65, 250.82 2.01 M160.59 103.81 C188.65 67.48, 217.42 33.64, 247.86 -0.2 M166.38 103.58 C195.22 65.21, 227 32.13, 254.38 0.21 M165.89 102.37 C196.33 69.13, 225.33 33.74, 254.62 0.35 M168.78 102.53 C206.87 60.74, 243.19 22.89, 258.11 0.23 M170.04 103.41 C199.98 68.28, 227.74 35.86, 259.15 -0.71 M177.44 103.63 C202.6 69.95, 233.82 36.2, 264.15 1.85 M176.21 102.89 C203.66 73.76, 229.81 43.73, 264.13 -0.72 M180.44 103.85 C203.59 79.12, 227.11 52.75, 270.18 -1.53 M181.3 102.27 C208.58 70.9, 235.77 39.47, 269.09 0.9 M185.47 105.07 C221.78 64.24, 255.74 23.57, 276.97 1.82 M185.92 103.4 C209.76 72.92, 236.3 42.67, 276.01 -0.22 M192.2 102.93 C217.56 74.09, 243.77 40.91, 279.45 0.6 M190.73 101.91 C223.05 67.07, 253.84 30.13, 281.37 0.75 M194.6 101.86 C229.87 66.25, 265.6 25.81, 286.28 1.2 M195.84 103.68 C217.16 80.3, 235.36 58.3, 285.81 -1.02 M203.88 104.47 C236.04 66.74, 269.23 28.52, 290.9 -1.58 M201.71 102.66 C231.05 70.39, 257.88 37.79, 292.16 0.2 M207.52 102.22 C224.37 82.99, 245.13 61.42, 295.09 0.06 M207.29 103.07 C226.11 81.37, 244.64 59.57, 297.07 -0.24 M212.84 104.15 C245.85 66.48, 278.43 29.15, 300.03 1.72 M213.57 102.56 C241.85 70.9, 270.63 37.92, 301.1 0.89 M218.09 103.56 C238.92 80.48, 258.74 55.97, 305.89 -0.58 M217.73 102.38 C245.81 69.56, 274.45 36.69, 308.31 -0.23 M223.97 102.64 C251.26 69.5, 280 36.84, 310.86 0.28 M222.67 102.47 C247.81 75.1, 272.46 46.95, 312.35 -0.26 M228.73 103.25 C248.52 79.82, 270.17 54.99, 318.73 -0.74 M229.13 103.7 C249.04 79.68, 269.62 55.36, 318.04 0.42 M235.69 103.53 C262.24 69.64, 291.62 39.37, 321.95 1.82 M233.3 102.97 C264.99 65.74, 296.65 30.61, 323.51 -0.09 M240.36 104.65 C266.13 74.36, 289.93 44.7, 329.2 0.56 M238.9 103.4 C268.63 68.26, 298.86 33.42, 329.75 -0.11 M245.95 103.43 C278.34 62.25, 310.89 24.29, 332.41 2.02 M244.77 103.45 C272.7 69.73, 302.4 37.79, 334.7 -0.17 M250.46 103.09 C274.06 72.94, 295.74 46.36, 338.39 -0.75 M248.97 103.1 C275.17 73.64, 301.6 43.91, 338.9 0.12 M254.23 101.89 C273.11 80.07, 293.09 57.62, 343.85 -1.43 M254.38 103.02 C289.65 60.71, 325.36 20.69, 343.51 0.22 M259.02 103.86 C290.06 71.34, 317.21 37.07, 349.64 1.73 M260.75 102.69 C280.99 80.08, 300.52 57.26, 348.64 1.34 M267.55 103.43 C287.47 80.09, 305.12 59.61, 347.86 8.63 M266.38 103.59 C282.72 82.42, 300.86 62.67, 349.44 6.58 M270.58 104.21 C290.12 81.01, 308.91 59.18, 349.25 12.93 M270.12 103.33 C297.12 71.74, 325.09 41.82, 349.55 13.07 M278.46 103.55 C299.09 74.79, 324.97 50.88, 347.76 20.8 M277.03 102.82 C293.27 84.12, 310.9 64.41, 348.69 20.14 M280.19 103.37 C297.06 81.76, 313.87 63.92, 347.43 27.87 M282.45 102.43 C305.37 76.08, 329.67 48.5, 347.58 26.75 M287.02 102.71 C305.57 80.88, 325.32 57.63, 348.7 30.12 M287.58 103.13 C308.8 79.75, 328.94 54.58, 349.24 31.85 M291.45 104.54 C309 85, 325.18 63.64, 348.75 36.86 M291.6 102.68 C314.71 78.35, 336.84 51.82, 349.44 37.87 M298.85 104.34 C310.91 85.52, 327.37 71.53, 350.43 42.13 M297.25 102.74 C311.15 86.85, 325.18 71.36, 348.61 43.5 M302.48 100.88 C315.13 87.97, 325.07 77.94, 347.3 49.42 M302.91 103.04 C318.19 84.96, 334.6 66.97, 348.89 50.96 M306.43 101.59 C315.72 91.44, 326.59 82.89, 348.57 55.08 M307.58 103.34 C321.59 88.79, 334.09 74.73, 348.15 56.85 M311.94 101.53 C323.84 89.86, 336.37 76.84, 347.39 61.29 M314.2 103.73 C323.99 91.9, 332.46 80.27, 348.3 61.56 M317.75 104.33 C328.06 95.21, 333.33 84.39, 347.24 66.96 M318.08 104.15 C327.45 92.45, 335.61 83.15, 348.68 67.71 M325.01 101.6 C332.45 89.97, 342.95 81.19, 348.83 73.19 M324.79 103.22 C329.09 96.9, 335.56 89.79, 349.03 73.98 M330.34 101.65 C336.74 94.29, 345.65 83.3, 349.14 81.96 M329.28 103.43 C336.3 94.39, 342.59 85.72, 349.53 81.37 M335.41 104.15 C338.28 97.81, 340.91 96.44, 348.34 85.56 M334.46 103.27 C338.32 98.67, 340.83 96.72, 347.78 87.03 M339.86 104.33 C342.16 101.56, 344.23 96.81, 348.35 93.22 M340.12 102.63 C342.64 99.27, 346.88 94.85, 348.36 92.65 M344.82 102.61 C346.57 101.78, 347.49 100.73, 348.46 98.6 M345.1 102.52 C345.91 102.07, 346.82 100.9, 348.48 98.73" stroke="#228be6" stroke-width="0.5" fill="none"></path><path d="M-0.53 0.94 C90.84 -1.88, 183.32 -2.24, 345.97 -0.87 M0.26 -0.05 C115.91 1.82, 232.65 1.72, 347.62 0.18 M348.82 0.56 C348.03 26.48, 348.93 49.27, 348.04 103.3 M347.99 0.52 C347.32 23.9, 347.14 46.26, 346.36 102.25 M348.27 101.1 C273.02 104.99, 200.73 102.94, 0.66 103.5 M347.45 102.32 C252.18 101.93, 156.62 101.18, 0.31 102.83 M0.89 101.06 C-1.63 72, -2.75 42.7, -0.11 0.31 M-0.35 102.65 C-0.83 62.29, -0.72 22.16, -1 0.77" stroke="#000000" stroke-width="1" fill="none"></path></g><g transform="translate(438.8897569444429 49.79730902777442) rotate(0 127.5 14)"><text x="0" y="21" font-family="Virgil, Segoe UI Emoji" font-size="20px" fill="#000000" text-anchor="start" style="white-space: pre;" direction="ltr">JS/TSPythonGo.Net</text></g></svg>